<?xml version="1.0" encoding="UTF-8"?>
<svg id="Layer_2" xmlns="http://www.w3.org/2000/svg" xmlns:xlink="http://www.w3.org/1999/xlink" viewBox="0 0 248.42 201.97">
  <defs>
    <style>
      .cls-1 {
        fill: url(#Degradado_sin_nombre_44);
      }

      .cls-2 {
        fill: url(#Degradado_sin_nombre_43);
      }
    </style>
    <linearGradient id="Degradado_sin_nombre_44" data-name="Degradado sin nombre 44" x1="-48.88" y1="365.56" x2="-186.6" y2="513.86" gradientTransform="translate(-122.76 -249.48) rotate(-45)" gradientUnits="userSpaceOnUse">
      <stop offset="0" stop-color="#01f8f5"/>
      <stop offset=".52" stop-color="#9e29c7"/>
      <stop offset="1" stop-color="#f40ea7"/>
    </linearGradient>
    <linearGradient id="Degradado_sin_nombre_43" data-name="Degradado sin nombre 43" x1="-3.48" y1="398.78" x2="-139.74" y2="545.52" gradientTransform="translate(-122.76 -249.48) rotate(-45)" gradientUnits="userSpaceOnUse">
      <stop offset="0" stop-color="#01f8f5"/>
      <stop offset=".52" stop-color="#9e29c7"/>
      <stop offset="1" stop-color="#f40ea7"/>
    </linearGradient>
  </defs>
  <g id="OBJECTS">
    <path class="cls-1" d="M185.81,188.63c.6.96,1.32,1.85,2.11,2.64,2.33,2.35,5.31,3.77,8.61,4.13,4.37.48,8.66-1.02,11.77-4.13h0s-3.4-3.4-3.4-3.4c-2.08,2.06-4.94,3.07-7.86,2.75-2.22-.24-4.15-1.16-5.73-2.74-.54-.54-1.04-1.15-1.46-1.82-1.89-2.93-1.89-7.04,0-9.97.42-.68.92-1.29,1.45-1.83l-3.39-3.39c-.79.78-1.5,1.66-2.12,2.63-2.89,4.59-2.89,10.53,0,15.12ZM180.34,192.12c.87,1.36,1.87,2.62,2.98,3.73,8.16,8.16,21.43,8.15,29.58,0l-3.39-3.39c-6.29,6.26-16.51,6.26-22.79,0-.87-.87-1.64-1.84-2.33-2.9-3.24-5.06-3.24-11.87,0-16.94.69-1.08,1.48-2.07,2.34-2.94l-3.4-3.4c-1.13,1.13-2.13,2.39-3.01,3.75-4.25,6.71-4.24,15.38.02,22.09ZM103.71,168.44c.31-.31.53-.68.63-1.1.16-.62.08-1.26-.25-1.82-.33-.55-.86-.94-1.48-1.1-1.23-.31-2.6.49-2.92,1.73-.32,1.29.46,2.6,1.74,2.93.81.2,1.69-.04,2.28-.64ZM127.72,158.23c.21-.21.38-.45.51-.73t0-.02c.25-.58.26-1.23.03-1.82-.23-.6-.68-1.07-1.27-1.33-1.19-.53-2.64.03-3.17,1.23h0c-.25.59-.26,1.24-.04,1.83.24.59.68,1.07,1.27,1.32.92.41,1.96.21,2.67-.49ZM151.83,188.34c-3.17,3.17-7.61,4.99-12.19,4.97-4.53,0-8.79-1.76-11.97-4.94-4.34-4.34-6.01-10.48-4.47-16.4.48-1.93,1.05-3.85,1.66-5.72.42-1.26-.27-2.61-1.54-3.03-1.22-.41-2.62.3-3.03,1.54-.64,1.98-1.23,4-1.75,6.01-.98,3.8-.94,7.78.13,11.52,1.03,3.57,2.95,6.86,5.59,9.48,4.08,4.1,9.55,6.36,15.37,6.35,5.84,0,11.53-2.33,15.6-6.39,2.62-2.62,4.47-5.88,5.35-9.42,2.33-9.37,7.08-17.98,13.76-25l-3.41-3.41c-7.3,7.65-12.48,17.05-15.01,27.27-.66,2.68-2.08,5.17-4.09,7.18ZM131.01,183.02c.26.35.59.72.94,1.08,1.17,1.19,3.72,3.17,7.68,3.17,3,0,5.88-1.18,7.92-3.22h0c1.22-1.23,2.08-2.73,2.48-4.36,2.79-11.3,8.53-21.67,16.61-30.09l-3.4-3.4c-8.7,9.04-14.87,20.19-17.87,32.34-.2.8-.59,1.47-1.22,2.11h0c-1.13,1.14-2.82,1.81-4.52,1.81-2.23,0-3.51-1-4.29-1.76-.25-.25-.42-.46-.53-.59-1.21-1.58-1.61-3.5-1.12-5.42,3.61-13.94,10.82-26.75,20.88-37.15l-3.4-3.4c-10.67,11.01-18.32,24.57-22.14,39.34-.87,3.34-.15,6.83,1.96,9.53ZM62.26,106.39c-.33.55-.42,1.2-.25,1.82.16.62.55,1.15,1.1,1.48.94.55,2.15.4,2.92-.37.14-.14.27-.31.36-.48h0c.66-1.15.28-2.61-.85-3.29-1.12-.66-2.62-.28-3.29.85ZM15.68,175.7c1.49-14.95,4.7-29.8,9.57-44.14.42-1.26-.25-2.61-1.5-3.05-1.22-.41-2.63.27-3.05,1.5-4.98,14.68-8.27,29.88-9.79,45.21-.31,3.08.7,6.16,2.79,8.45.12.15.27.31.38.42,2.06,2.06,4.8,3.2,7.73,3.19,2.95,0,5.7-1.14,7.78-3.21l.03-.03c.98-.98,2.69-3.12,3.01-6.33,1.32-13.47,4.17-26.84,8.47-39.75,4.27-12.81,9.98-25.18,16.97-36.75.02-.03.03-.07.05-.09t0-.02c.56-.93.42-2.13-.34-2.9-.14-.15-.3-.28-.47-.38-1.12-.68-2.62-.31-3.3.81-7.18,11.9-13.06,24.6-17.45,37.78-4.42,13.25-7.36,26.99-8.71,40.83-.13,1.3-.68,2.46-1.65,3.43-1.18,1.18-2.7,1.8-4.39,1.81-1.68,0-3.14-.61-4.33-1.78-.08-.08-.14-.16-.21-.23-1.21-1.34-1.75-2.99-1.59-4.76ZM12.44,135.25c.27-.27.48-.61.59-.98.39-1.27-.32-2.61-1.59-3-1.22-.39-2.62.35-3.01,1.58-.38,1.26.32,2.61,1.6,3,.84.26,1.77.03,2.4-.6ZM91.23,174.89c.35-.35.57-.79.65-1.28.12-.63-.03-1.27-.39-1.8-.37-.52-.92-.87-1.55-.98-1.26-.22-2.56.69-2.78,1.95-.23,1.3.64,2.56,1.94,2.78.77.14,1.56-.1,2.12-.66ZM59.74,117.53c-.19-.19-.4-.35-.64-.47-1.15-.56-2.64-.08-3.22,1.1-9.4,19.04-15.2,39.27-17.23,60.14-.37,3.82-2.03,7.29-4.77,10.05-3.22,3.22-7.51,4.98-12.08,4.98-4.53,0-8.79-1.77-12-4.98-3.63-3.63-5.43-8.63-4.92-13.73,1.04-10.5,2.91-21.01,5.55-31.22.33-1.28-.44-2.6-1.71-2.94-1.23-.31-2.61.49-2.93,1.72-2.71,10.47-4.62,21.21-5.68,31.96-.66,6.54,1.64,12.95,6.29,17.6,4.11,4.11,9.58,6.38,15.4,6.38s11.35-2.27,15.48-6.4c3.49-3.49,5.67-8.1,6.15-12.97,1.99-20.29,7.62-39.97,16.76-58.48.47-.93.28-2.03-.45-2.76ZM97.11,179.28c-.6,3.46-2.23,6.6-4.72,9.08-3.2,3.2-7.45,4.96-11.97,4.96,0,0,0,0-.02,0-4.57,0-8.88-1.78-12.12-5.03-3.77-3.77-5.51-8.91-4.78-14.1,2.22-15.66,6.81-30.8,13.67-44.98,6.71-13.89,15.47-26.62,26.03-37.85.9-.97.86-2.49-.1-3.4-.98-.91-2.48-.88-3.4.1-10.9,11.58-19.94,24.71-26.86,39.05-7.07,14.63-11.82,30.24-14.09,46.4-.94,6.7,1.28,13.32,6.14,18.16,4.15,4.15,9.66,6.44,15.54,6.44s11.27-2.27,15.37-6.37c3.18-3.18,5.28-7.22,6.05-11.66.14-.76-.12-1.54-.65-2.1-.36-.36-.81-.59-1.3-.67-1.26-.22-2.56.69-2.78,1.94ZM135.89,176.09s-.03.06-.03.08c-.19.61-.13,1.26.17,1.83.3.57.8.98,1.41,1.17,1.22.37,2.62-.35,3-1.58,0,0,.09-.28.28-.84,1.11-3.17,7.01-18.89,20.02-33.06l-3.4-3.4c-6.01,6.53-11.27,14.05-15.64,22.42-3.56,6.78-5.35,11.95-5.81,13.37ZM27.97,123.47c.24-.24.41-.51.53-.82.24-.59.23-1.25-.03-1.83-.25-.59-.72-1.04-1.32-1.27-1.19-.48-2.64.14-3.11,1.36-.24.59-.23,1.25.03,1.83.25.59.72,1.04,1.32,1.27.88.36,1.89.14,2.57-.54ZM64.99,90.51c.09-.09.19-.2.26-.31.76-1.09.51-2.58-.58-3.35-1.07-.75-2.58-.49-3.34.58-.37.53-.52,1.16-.41,1.8.11.62.46,1.17.98,1.55.95.68,2.25.57,3.08-.26ZM66.64,81.4c.08.64.39,1.21.9,1.6,1.04.81,2.56.64,3.37-.4,4.19-5.32,8.72-10.45,13.46-15.27l-3.39-3.39c-4.89,4.96-9.54,10.22-13.84,15.68-.4.5-.58,1.14-.5,1.77ZM28.09,133.81c-7.55,21.88-9.33,38.21-9.61,41.28,0,.04,0,.08,0,.08-.1,1.32.89,2.49,2.21,2.6.7.04,1.39-.2,1.89-.7.4-.4.65-.93.69-1.5,0-.02.08-.99.31-2.83.81-6.39,3.57-23.56,11.77-44.78,4.58-11.86,10.19-23.21,16.66-33.74,7.48-12.17,16.21-23.35,25.95-33.29l-3.39-3.39c-11.14,11.39-20.98,24.31-29.21,38.45-6.89,11.83-12.7,24.57-17.27,37.83ZM29.8,111.34c.2.2.42.36.69.48,1.15.54,2.64.03,3.19-1.15,9.69-20.62,22.69-39.25,38.62-55.41l-3.39-3.39c-16.33,16.55-29.65,35.63-39.58,56.76-.43.91-.25,2,.47,2.71ZM34.47,77.75c-8.8,13.43-16.1,27.71-21.68,42.46-.34.88-.13,1.88.54,2.55.24.24.53.42.85.54.88.34,1.88.12,2.55-.54.25-.25.42-.53.54-.85,5.48-14.42,12.61-28.4,21.22-41.52,7.61-11.61,16.41-22.61,26.19-32.76l-3.4-3.4c-10,10.39-19.01,21.64-26.81,33.52ZM130.48,146.56c.13.13.27.24.42.34,1.1.68,2.61.33,3.3-.77,0,0,0,0,0-.02,3.62-5.86,7.9-11.32,12.7-16.25l-3.4-3.4c-5.06,5.18-9.57,10.93-13.39,17.12-.59.96-.45,2.18.36,2.97ZM102.5,156.76c-.21.6-.17,1.26.11,1.83.28.59.76,1.02,1.38,1.22,1.22.42,2.63-.25,3.05-1.49,2.78-8.04,6.46-15.77,10.94-22.95,4.35-6.97,9.47-13.43,15.21-19.24l-3.4-3.4c-6,6.06-11.35,12.81-15.89,20.09-4.67,7.49-8.51,15.54-11.4,23.93ZM89.24,163.22c-.16.62-.07,1.26.25,1.82.33.55.86.94,1.48,1.1,1.23.31,2.6-.49,2.92-1.73,2.74-10.71,6.9-20.98,12.37-30.54,5.25-9.17,11.74-17.71,19.26-25.39l-3.4-3.4c-7.82,7.99-14.57,16.86-20.03,26.42-5.68,9.92-10,20.6-12.85,31.72ZM68.09,101.47c1.09.71,2.61.42,3.34-.67,6.04-9.11,12.98-17.75,20.66-25.76l-3.4-3.4c-7.91,8.23-15.05,17.12-21.27,26.49-.73,1.1-.42,2.6.67,3.34ZM72.03,183.43c.14.18.32.37.53.58,2.11,2.11,4.9,3.27,7.87,3.25,1.45,0,2.87-.27,4.21-.83.29-.12.54-.31.76-.52.7-.7.91-1.72.53-2.63-.13-.3-.31-.56-.54-.78-.7-.68-1.71-.87-2.61-.5-.74.31-1.53.48-2.34.48-1.69,0-3.28-.66-4.47-1.86-.11-.11-.2-.2-.28-.3-1.17-1.39-1.65-2.94-1.41-4.6,4.25-30.13,17.8-57.51,39.19-79.31l-3.4-3.4c-22.13,22.54-36.15,50.87-40.55,82.04-.6,4.29,1.55,7.29,2.52,8.38ZM76.98,176.19c-.18,1.32.75,2.53,2.05,2.72.75.1,1.49-.15,2.03-.69.37-.37.6-.84.69-1.37,0,0,0,0,0-.02,0,0,0-.02,0-.03.08-.51.19-1.1.31-1.79.77-4.2,3.22-15.48,9.24-29.52,7.08-16.5,16.54-30.98,28.14-43.11l-3.39-3.39c-31.44,32.89-38.35,72.59-39.05,77.1,0,.05,0,.08-.02.08Z"/>
    <path class="cls-2" d="M183.26,89.94l3.44,3.44c.97.97,2.54.97,3.51,0l3.44-3.44c.97-.97.97-2.54,0-3.51l-3.44-3.44c-.97-.97-2.54-.97-3.51,0l-3.44,3.44c-.97.97-.97,2.54,0,3.51ZM157.84,73.04l3.81,3.81c.97.97,2.54.97,3.51,0l4.22-4.23c.97-.97.97-2.54,0-3.51l-3.81-3.81c-.97-.97-2.54-.97-3.51,0l-4.22,4.22c-.97.97-.97,2.54,0,3.51ZM142.61,102.9h0c-.97-.97-.97-2.54,0-3.51l13.63-13.63c.97-.97.97-2.54,0-3.51l-3.81-3.81c-.97-.97-2.54-.97-3.51,0l-13.63,13.63c-.97.97-2.54.97-3.51,0l-1.64-1.64c-.97-.97-.97-2.54,0-3.51l3.68-3.68c.97-.97.97-2.54,0-3.51l-3.81-3.81c-.97-.97-2.54-.97-3.51,0l-3.68,3.68c-.97.97-2.54.97-3.51,0l-4.01-4.01c-.97-.97-2.54-.97-3.51,0l-.56.56c-.97.97-.97,2.54,0,3.51l27.29,27.29c.97.97,2.54.97,3.51,0l.56-.56c.97-.97.97-2.54,0-3.51ZM101.48,61.77l-4.94-4.94c-.97-.97-.97-2.54,0-3.51l6.48-6.48c.97-.97.97-2.54,0-3.51l-3.81-3.81c-.97-.97-2.54-.97-3.51,0l-6.48,6.48c-.97.97-2.54.97-3.51,0l-4.21-4.21c-.97-.97-.97-2.54,0-3.51l18.88-18.88c.97-.97.97-2.54,0-3.51l-3.81-3.81c-.97-.97-2.54-.97-3.51,0l-22.94,22.94c-.97.97-.97,2.54,0,3.51l27.29,27.29c.97.97,2.54.97,3.51,0l.56-.56c.97-.97.97-2.54,0-3.51ZM111.39,4.17l-3.44-3.44c-.97-.97-2.54-.97-3.51,0l-3.44,3.44c-.97.97-.97,2.54,0,3.51l3.44,3.44c.97.97,2.54.97,3.51,0l3.44-3.44c.97-.97.97-2.54,0-3.51ZM134.18,71.79l3.81,3.81c.97.97,2.54.97,3.51,0l11.96-11.96c.97-.97.97-2.54,0-3.51l-3.81-3.81c-.97-.97-2.54-.97-3.51,0l-11.96,11.96c-.97.97-.97,2.54,0,3.51ZM187.55,115.71l3.81,3.81c.97.97,2.54.97,3.51,0l21.57-21.57c.97-.97.97-2.54,0-3.51l-3.81-3.81c-.97-.97-2.54-.97-3.51,0l-21.57,21.57c-.97.97-.97,2.54,0,3.51ZM183.75,144.03l-4.94-4.94c-.97-.97-.97-2.54,0-3.51l6.48-6.48c.97-.97.97-2.54,0-3.51l-3.81-3.81c-.97-.97-2.54-.97-3.51,0l-6.48,6.48c-.97.97-2.54.97-3.51,0l-4.21-4.21c-.97-.97-.97-2.54,0-3.51l18.88-18.88c.97-.97.97-2.54,0-3.51l-3.81-3.81c-.97-.97-2.54-.97-3.51,0l-22.94,22.94c-.97.97-.97,2.54,0,3.51l27.29,27.29c.97.97,2.54.97,3.51,0l.56-.56c.97-.97.97-2.54,0-3.51ZM126.86,8.37l-21.57,21.57c-.97.97-.97,2.54,0,3.51l3.81,3.81c.97.97,2.54.97,3.51,0l21.57-21.57c.97-.97.97-2.54,0-3.51l-3.81-3.81c-.97-.97-2.54-.97-3.51,0ZM236.15,151.34l3.81,3.81c.97.97,2.54.97,3.51,0l4.23-4.23c.97-.97.97-2.54,0-3.51l-3.81-3.81c-.97-.97-2.54-.97-3.51,0l-4.23,4.23c-.97.97-.97,2.54,0,3.51ZM231.76,138.44l-3.81-3.81c-.97-.97-2.54-.97-3.51,0l-11.96,11.96c-.97.97-.97,2.54,0,3.51l3.81,3.81c.97.97,2.54.97,3.51,0l11.96-11.96c.97-.97.97-2.54,0-3.51ZM210.1,170.38l-1.64-1.64c-.97-.97-.97-2.54,0-3.51l3.68-3.68c.97-.97.97-2.54,0-3.51l-3.81-3.81c-.97-.97-2.54-.97-3.51,0l-3.68,3.68c-.97.97-2.54.97-3.51,0l-1.4-1.4c-.97-.97-2.54-.97-3.51,0l-.56.56c-.97.97-.97,2.54,0,3.51l26.06,26.06c.97.97,2.54.97,3.51,0l.56-.56c.97-.97.97-2.54,0-3.51l-1.38-1.38c-.97-.97-.97-2.54,0-3.51l13.63-13.63c.97-.97.97-2.54,0-3.51l-3.81-3.81c-.97-.97-2.54-.97-3.51,0l-13.63,13.63c-.97.97-2.54.97-3.51,0Z"/>
  </g>
</svg>